# Blender v2.79 (sub 0) OBJ File: 'palmtree.blend'
# www.blender.org
mtllib palmtree.mtl
o Cylinder
v -0.000000 -2.000000 -0.500000
v -0.000000 6.962082 -0.210000
v 0.475528 -2.000000 -0.154509
v 0.199722 6.962082 -0.064894
v 0.293893 -2.000000 0.404509
v 0.123435 6.962082 0.169894
v -0.293893 -2.000000 0.404508
v -0.123435 6.962082 0.169894
v -0.475528 -2.000000 -0.154509
v -0.199722 6.962082 -0.064894
v -3.032699 6.330353 -0.588354
v -3.026479 6.330353 0.606333
v -2.712928 7.042744 0.008990
v -1.951368 6.662866 -0.816778
v -1.937967 6.662866 0.833436
v 0.019792 6.996830 -0.002055
v -0.757527 6.912251 -0.663470
v -0.746655 6.912251 0.675407
v -1.253983 7.419721 0.012671
v -3.791277 5.937579 0.008990
v -0.686541 6.330353 -3.006859
v -1.773736 6.330353 -2.511557
v -1.100358 7.042744 -2.470364
v -0.035011 6.662866 -2.114131
v -1.534775 6.662866 -1.425587
v 0.029689 6.996830 0.017783
v 0.314429 6.912251 -0.962328
v -0.902383 6.912251 -0.403687
v -0.505785 7.419721 -1.138066
v -1.542307 5.937579 -3.453989
v 2.671307 6.330353 -1.612825
v 1.868291 6.330353 -2.497405
v 2.034233 7.042744 -1.843496
v 2.019549 6.662866 -0.720264
v 0.906771 6.662866 -1.938914
v 0.008725 6.996830 -0.009049
v 1.028990 6.912251 -0.036487
v 0.126153 6.912251 -1.025221
v 0.946453 7.419721 -0.871246
v 2.836425 5.937579 -2.564138
v 2.613646 6.330353 1.634238
v 3.041931 6.330353 0.518940
v 2.532770 7.042744 0.961533
v 1.523222 6.662866 1.454156
v 2.110330 6.662866 -0.088143
v -0.017197 6.996830 -0.021090
v 0.466676 6.912251 0.877553
v 0.943018 6.912251 -0.373769
v 1.174873 7.419721 0.428006
v 3.537420 5.937579 1.353343
v -1.037986 6.330353 2.888684
v 0.143927 6.330353 3.063035
v -0.399186 7.042744 2.662834
v -1.100413 6.662866 1.785254
v 0.532881 6.662866 2.021331
v 0.002771 6.996830 -0.040185
v -0.768493 6.912251 0.628280
v 0.556657 6.912251 0.819818
v -0.175121 7.419721 1.221193
v -0.562110 5.937579 3.728805
vn 0.5876 0.0262 -0.8087
vn 0.9507 0.0262 0.3089
vn -0.0000 0.0262 0.9997
vn 0.0000 1.0000 0.0000
vn -0.9507 0.0262 0.3089
vn -0.5876 0.0262 -0.8087
vn -0.2060 0.8029 -0.5594
vn -0.2080 0.7993 0.5638
vn 0.2788 0.8551 -0.4371
vn -0.0747 0.7633 0.6417
vn 0.2885 0.8540 0.4330
vn -0.0790 0.7686 -0.6349
vn -0.3435 0.6876 0.6397
vn -0.3464 0.6892 -0.6365
vn -0.6509 0.6351 0.4158
vn -0.6528 0.6369 -0.4102
vn 0.4258 0.8029 -0.4172
vn -0.5995 0.7993 0.0414
vn 0.5129 0.8551 0.0752
vn -0.6159 0.7633 0.1949
vn -0.2767 0.8540 0.4406
vn 0.5467 0.7686 -0.3323
vn -0.7243 0.6876 -0.0512
vn 0.4386 0.6892 -0.5768
vn -0.6460 0.6351 -0.4234
vn 0.1066 0.6369 -0.7635
vn 0.5271 0.8029 0.2784
vn -0.2221 0.7993 -0.5584
vn 0.0846 0.8551 0.5115
vn -0.3733 0.7633 -0.5272
vn -0.5040 0.8540 -0.1293
vn 0.4831 0.7686 0.4195
vn -0.1720 0.6876 -0.7054
vn 0.6830 0.6892 0.2420
vn 0.2064 0.6351 -0.7443
vn 0.7597 0.6369 -0.1311
vn -0.0113 0.8029 0.5960
vn 0.3986 0.7993 -0.4497
vn -0.4186 0.8551 0.3059
vn 0.3027 0.7633 -0.5707
vn -0.1115 0.8540 -0.5083
vn -0.1571 0.7686 0.6202
vn 0.5525 0.6876 -0.4712
vn 0.0914 0.6892 0.7188
vn 0.7575 0.6351 -0.1509
vn 0.4591 0.6369 0.6193
vn -0.5841 0.8029 0.1192
vn 0.5259 0.7993 0.2907
vn -0.3899 0.8551 -0.3417
vn 0.6230 0.7633 0.1708
vn 0.4716 0.8540 -0.2198
vn -0.6395 0.7686 -0.0178
vn 0.5805 0.6876 0.4362
vn -0.6815 0.6892 0.2462
vn 0.3127 0.6351 0.7063
vn -0.5041 0.6369 0.5833
usemtl None
s off
f 2//1 3//1 1//1
f 4//2 5//2 3//2
f 6//3 7//3 5//3
f 4//4 2//4 10//4 8//4 6//4
f 8//5 9//5 7//5
f 10//6 1//6 9//6
f 14//7 13//7 19//7
f 13//8 15//8 19//8
f 19//9 16//9 17//9
f 19//10 15//10 18//10
f 19//11 18//11 16//11
f 19//12 17//12 14//12
f 13//13 12//13 15//13
f 14//14 11//14 13//14
f 13//15 20//15 12//15
f 13//16 11//16 20//16
f 24//17 23//17 29//17
f 23//18 25//18 29//18
f 29//19 26//19 27//19
f 29//20 25//20 28//20
f 29//21 28//21 26//21
f 29//22 27//22 24//22
f 23//23 22//23 25//23
f 24//24 21//24 23//24
f 23//25 30//25 22//25
f 23//26 21//26 30//26
f 34//27 33//27 39//27
f 33//28 35//28 39//28
f 39//29 36//29 37//29
f 39//30 35//30 38//30
f 39//31 38//31 36//31
f 39//32 37//32 34//32
f 33//33 32//33 35//33
f 34//34 31//34 33//34
f 33//35 40//35 32//35
f 33//36 31//36 40//36
f 44//37 43//37 49//37
f 43//38 45//38 49//38
f 49//39 46//39 47//39
f 49//40 45//40 48//40
f 49//41 48//41 46//41
f 49//42 47//42 44//42
f 43//43 42//43 45//43
f 44//44 41//44 43//44
f 43//45 50//45 42//45
f 43//46 41//46 50//46
f 54//47 53//47 59//47
f 53//48 55//48 59//48
f 59//49 56//49 57//49
f 59//50 55//50 58//50
f 59//51 58//51 56//51
f 59//52 57//52 54//52
f 53//53 52//53 55//53
f 54//54 51//54 53//54
f 53//55 60//55 52//55
f 53//56 51//56 60//56
f 8//5 10//5 9//5
f 6//3 8//3 7//3
f 4//2 6//2 5//2
f 2//1 4//1 3//1
f 10//6 2//6 1//6
