ply
format ascii 1.0
comment Created by Blender 2.79 (sub 0) - www.blender.org, source file: 'palmtree.blend'
element vertex 46
property float x
property float y
property float z
property float nx
property float ny
property float nz
property uchar red
property uchar green
property uchar blue
element face 16
property list uchar uint vertex_indices
end_header
0.638726 -1.241763 6.662866 -0.088981 -0.588759 0.803396 75 255 68
1.368317 -1.156737 6.805983 -0.088981 -0.588759 0.803396 75 255 68
0.646303 -0.533210 7.182961 -0.088981 -0.588759 0.803396 75 255 68
1.368317 -1.156737 6.805983 0.573142 0.180391 0.799354 75 255 68
1.335287 -0.417607 6.662866 0.573142 0.180391 0.799354 75 255 68
0.646303 -0.533210 7.182961 0.573142 0.180391 0.799354 75 255 68
0.646303 -0.533210 7.182961 -0.411230 -0.179321 0.893719 75 255 68
0.008282 0.002281 6.996830 -0.411230 -0.179321 0.893719 53 255 60
0.111954 -0.656996 6.912251 -0.411230 -0.179321 0.893719 53 255 60
0.646303 -0.533210 7.182961 0.524632 0.354821 0.773862 75 255 68
1.335287 -0.417607 6.662866 0.524632 0.354821 0.773862 75 255 68
0.677098 0.011671 6.912251 0.524632 0.354821 0.773862 62 255 63
0.646303 -0.533210 7.182961 0.106764 0.437546 0.892835 75 255 68
0.677098 0.011671 6.912251 0.106764 0.437546 0.892835 62 255 63
0.008282 0.002281 6.996830 0.106764 0.437546 0.892835 53 255 60
0.646303 -0.533210 7.182961 -0.262883 -0.569084 0.779125 75 255 68
0.111954 -0.656996 6.912251 -0.262883 -0.569084 0.779125 53 255 60
0.638726 -1.241763 6.662866 -0.262883 -0.569084 0.779125 75 255 68
1.368317 -1.156737 6.805983 0.719022 0.162950 0.675614 75 255 68
1.778373 -0.994090 6.330353 0.719022 0.162950 0.675614 75 255 68
1.335287 -0.417607 6.662866 0.719022 0.162950 0.675614 75 255 68
0.638726 -1.241763 6.662866 -0.047279 -0.734244 0.677238 75 255 68
1.272365 -1.589262 6.330353 -0.047279 -0.734244 0.677238 75 255 68
1.368317 -1.156737 6.805983 -0.047279 -0.734244 0.677238 75 255 68
1.368317 -1.156737 6.805983 0.774787 -0.219033 0.593068 75 255 68
1.903139 -1.616255 5.937579 0.774787 -0.219033 0.593068 75 255 68
1.778373 -0.994090 6.330353 0.774787 -0.219033 0.593068 75 255 68
1.368317 -1.156737 6.805983 0.339040 -0.729055 0.594585 75 255 68
1.272365 -1.589262 6.330353 0.339040 -0.729055 0.594585 75 255 68
1.903139 -1.616255 5.937579 0.339040 -0.729055 0.594585 75 255 68
1.903139 -1.616255 5.937579 -0.471773 0.401096 -0.785208 75 255 68
1.272365 -1.589262 6.330353 -0.471773 0.401096 -0.785208 75 255 68
1.778373 -0.994090 6.330353 -0.471773 0.401096 -0.785208 75 255 68
1.778373 -0.994090 6.330353 -0.322759 0.274406 -0.905830 75 255 68
1.272365 -1.589262 6.330353 -0.322759 0.274406 -0.905830 75 255 68
1.335287 -0.417607 6.662866 -0.322759 0.274406 -0.905830 75 255 68
1.272365 -1.589262 6.330353 -0.324577 0.274326 -0.905204 75 255 68
0.638726 -1.241763 6.662866 -0.324577 0.274326 -0.905204 75 255 68
1.335287 -0.417607 6.662866 -0.324577 0.274326 -0.905204 75 255 68
1.335287 -0.417607 6.662866 -0.232647 0.196629 -0.952477 75 255 68
0.638726 -1.241763 6.662866 -0.232647 0.196629 -0.952477 75 255 68
0.677098 0.011671 6.912251 -0.232647 0.196629 -0.952477 62 255 63
0.111954 -0.656996 6.912251 -0.232647 0.196629 -0.952477 53 255 60
0.008282 0.002281 6.996830 -0.126218 0.106677 -0.986250 53 255 60
0.677098 0.011671 6.912251 -0.126218 0.106677 -0.986250 62 255 63
0.111954 -0.656996 6.912251 -0.126218 0.106677 -0.986250 53 255 60
3 0 1 2
3 3 4 5
3 6 7 8
3 9 10 11
3 12 13 14
3 15 16 17
3 18 19 20
3 21 22 23
3 24 25 26
3 27 28 29
3 30 31 32
3 33 34 35
3 36 37 38
3 39 40 41
3 40 42 41
3 43 44 45
