ply
format ascii 1.0
comment Created by Blender 2.79 (sub 0) - www.blender.org, source file: 'bush.blend'
element vertex 90
property float x
property float y
property float z
property float nx
property float ny
property float nz
property uchar red
property uchar green
property uchar blue
element face 30
property list uchar uint vertex_indices
end_header
-0.702234 0.295452 -0.321697 -0.987495 0.085926 0.132178 25 201 35
-0.586472 0.271156 0.558946 -0.987495 0.085926 0.132178 25 201 35
-0.613536 0.768822 0.033226 -0.987495 0.085926 0.132178 25 201 35
0.273170 0.270996 -0.686177 -0.348540 0.048823 -0.936021 25 201 35
-0.702234 0.295452 -0.321697 -0.348540 0.048823 -0.936021 25 201 35
-0.332030 0.793119 -0.433589 -0.348540 0.048823 -0.936021 25 201 35
0.766881 0.280593 -0.053950 0.783293 0.102008 -0.613227 25 201 35
0.273170 0.270996 -0.686177 0.783293 0.102008 -0.613227 25 201 35
0.457507 0.795856 -0.363411 0.783293 0.102008 -0.613227 25 201 35
0.292182 0.286228 0.700961 0.845762 -0.039177 0.532120 25 201 35
0.766881 0.280593 -0.053950 0.845762 -0.039177 0.532120 25 201 35
0.535175 0.778259 0.350969 0.845762 -0.039177 0.532120 25 201 35
-0.586472 0.271156 0.558946 -0.160159 0.161722 0.973753 25 201 35
0.292182 0.286228 0.700961 -0.160159 0.161722 0.973753 25 201 35
-0.125630 0.783894 0.549588 -0.160159 0.161722 0.973753 25 201 35
-0.702234 0.295452 -0.321697 -0.765866 0.471390 -0.437311 25 201 35
-0.613536 0.768822 0.033226 -0.765866 0.471390 -0.437311 25 201 35
-0.332030 0.793119 -0.433589 -0.765866 0.471390 -0.437311 25 201 35
0.273170 0.270996 -0.686177 0.074781 0.503178 -0.860941 25 201 35
-0.332030 0.793119 -0.433589 0.074781 0.503178 -0.860941 25 201 35
0.457507 0.795856 -0.363411 0.074781 0.503178 -0.860941 25 201 35
0.766881 0.280593 -0.053950 0.875674 0.475630 -0.083488 25 201 35
0.457507 0.795856 -0.363411 0.875674 0.475630 -0.083488 25 201 35
0.535175 0.778259 0.350969 0.875674 0.475630 -0.083488 25 201 35
0.292182 0.286228 0.700961 0.257387 0.472476 0.842922 25 201 35
0.535175 0.778259 0.350969 0.257387 0.472476 0.842922 25 201 35
-0.125630 0.783894 0.549588 0.257387 0.472476 0.842922 25 201 35
-0.586472 0.271156 0.558946 -0.610704 0.559126 0.560730 25 201 35
-0.125630 0.783894 0.549588 -0.610704 0.559126 0.560730 25 201 35
-0.613536 0.768822 0.033226 -0.610704 0.559126 0.560730 25 201 35
-0.332030 0.793119 -0.433589 -0.258546 0.960172 -0.105939 25 201 35
-0.613536 0.768822 0.033226 -0.258546 0.960172 -0.105939 25 201 35
0.091898 0.960908 0.052557 -0.258546 0.960172 -0.105939 25 201 35
0.457507 0.795856 -0.363411 0.027646 0.937240 -0.347588 25 201 35
-0.332030 0.793119 -0.433589 0.027646 0.937240 -0.347588 25 201 35
0.091898 0.960908 0.052557 0.027646 0.937240 -0.347588 25 201 35
0.535175 0.778259 0.350969 0.392377 0.919587 -0.020008 25 201 35
0.457507 0.795856 -0.363411 0.392377 0.919587 -0.020008 25 201 35
0.091898 0.960908 0.052557 0.392377 0.919587 -0.020008 25 201 35
-0.125630 0.783894 0.549588 0.122023 0.916920 0.379957 25 201 35
0.535175 0.778259 0.350969 0.122023 0.916920 0.379957 25 201 35
0.091898 0.960908 0.052557 0.122023 0.916920 0.379957 25 201 35
-0.613536 0.768822 0.033226 -0.261898 0.939677 0.220037 25 201 35
-0.125630 0.783894 0.549588 -0.261898 0.939677 0.220037 25 201 35
0.091898 0.960908 0.052557 -0.261898 0.939677 0.220037 25 201 35
0.766881 0.280593 -0.053950 0.739545 -0.354596 -0.572133 25 201 35
0.414269 -0.093760 -0.277724 0.739545 -0.354596 -0.572133 25 201 35
0.273170 0.270996 -0.686177 0.739545 -0.354596 -0.572133 26 201 36
0.490262 -0.088125 0.472762 0.746845 -0.661234 -0.070659 25 201 35
0.414269 -0.093760 -0.277724 0.746845 -0.661234 -0.070659 25 201 35
0.766881 0.280593 -0.053950 0.746845 -0.661234 -0.070659 25 201 35
0.766881 0.280593 -0.053950 0.840517 0.123117 0.527611 25 201 35
0.292182 0.286228 0.700961 0.840517 0.123117 0.527611 25 201 35
0.490262 -0.088125 0.472762 0.840517 0.123117 0.527611 25 201 35
0.490262 -0.088125 0.472762 0.161433 -0.449991 0.878321 25 201 35
0.292182 0.286228 0.700961 0.161433 -0.449991 0.878321 25 201 35
-0.048909 -0.103197 0.564138 0.161433 -0.449991 0.878321 25 201 35
0.292182 0.286228 0.700961 -0.152697 -0.205864 0.966594 25 201 35
-0.586472 0.271156 0.558946 -0.152697 -0.205864 0.966594 25 201 35
-0.048909 -0.103197 0.564138 -0.152697 -0.205864 0.966594 25 201 35
-0.048909 -0.103197 0.564138 -0.503313 -0.716038 0.483700 25 201 35
-0.586472 0.271156 0.558946 -0.503313 -0.716038 0.483700 25 201 35
-0.623552 -0.078901 0.002161 -0.503313 -0.716038 0.483700 25 201 35
-0.586472 0.271156 0.558946 -0.987087 -0.097542 0.127063 25 201 35
-0.702234 0.295452 -0.321697 -0.987087 -0.097542 0.127063 25 201 35
-0.623552 -0.078901 0.002161 -0.987087 -0.097542 0.127063 25 201 35
-0.623552 -0.078901 0.002161 -0.549915 -0.609557 -0.570994 25 201 35
-0.702234 0.295452 -0.321697 -0.549915 -0.609557 -0.570994 25 201 35
-0.189216 -0.076163 -0.419063 -0.549915 -0.609557 -0.570994 25 201 35
-0.702234 0.295452 -0.321697 -0.345161 -0.238677 -0.907688 25 201 35
0.273170 0.270996 -0.686177 -0.345161 -0.238677 -0.907688 25 201 35
-0.189216 -0.076163 -0.419063 -0.345161 -0.238677 -0.907688 25 201 35
-0.189216 -0.076163 -0.419063 0.139838 -0.714062 -0.685975 25 201 35
0.273170 0.270996 -0.686177 0.139838 -0.714062 -0.685975 26 201 36
0.414269 -0.093760 -0.277724 0.139838 -0.714062 -0.685975 25 201 35
-0.623552 -0.078901 0.002161 -0.623211 -0.481243 0.616452 25 201 35
0.003892 -0.801294 0.072538 -0.623211 -0.481243 0.616452 25 201 35
-0.048909 -0.103197 0.564138 -0.623211 -0.481243 0.616452 25 201 35
-0.623552 -0.078901 0.002161 -0.575774 -0.558289 -0.597325 25 201 35
-0.189216 -0.076163 -0.419063 -0.575774 -0.558289 -0.597325 25 201 35
0.003892 -0.801294 0.072538 -0.575774 -0.558289 -0.597325 26 201 36
-0.048909 -0.103197 0.564138 0.153530 -0.561150 0.813351 25 201 35
0.003892 -0.801294 0.072538 0.153530 -0.561150 0.813351 25 201 35
0.490262 -0.088125 0.472762 0.153530 -0.561150 0.813351 25 201 35
0.490262 -0.088125 0.472762 0.844112 -0.529937 -0.081494 25 201 35
0.003892 -0.801294 0.072538 0.844112 -0.529937 -0.081494 25 201 35
0.414269 -0.093760 -0.277724 0.844112 -0.529937 -0.081494 25 201 35
0.414269 -0.093760 -0.277724 0.180624 -0.518511 -0.835776 25 201 35
0.003892 -0.801294 0.072538 0.180624 -0.518511 -0.835776 25 201 35
-0.189216 -0.076163 -0.419063 0.180624 -0.518511 -0.835776 25 201 35
3 0 1 2
3 3 4 5
3 6 7 8
3 9 10 11
3 12 13 14
3 15 16 17
3 18 19 20
3 21 22 23
3 24 25 26
3 27 28 29
3 30 31 32
3 33 34 35
3 36 37 38
3 39 40 41
3 42 43 44
3 45 46 47
3 48 49 50
3 51 52 53
3 54 55 56
3 57 58 59
3 60 61 62
3 63 64 65
3 66 67 68
3 69 70 71
3 72 73 74
3 75 76 77
3 78 79 80
3 81 82 83
3 84 85 86
3 87 88 89
