ply
format ascii 1.0
comment Created by Blender 2.79 (sub 0) - www.blender.org, source file: 'palmtree.blend'
element vertex 257
property float x
property float y
property float z
property float nx
property float ny
property float nz
property uchar red
property uchar green
property uchar blue
element face 93
property list uchar uint vertex_indices
end_header
0.000000 6.962082 0.137316 -0.587699 0.017115 0.808899 135 84 45
-0.310941 -2.000000 0.101031 -0.587699 0.017115 0.808899 135 84 45
0.000000 -2.000000 0.326943 -0.587699 0.017115 0.808899 135 84 45
-0.130595 6.962082 0.042433 -0.950917 0.017115 -0.308972 135 84 45
-0.192172 -2.000000 -0.264502 -0.950917 0.017115 -0.308972 135 84 45
-0.310941 -2.000000 0.101031 -0.950917 0.017115 -0.308972 135 84 45
-0.080712 6.962082 -0.111091 0.000000 0.017115 -0.999854 135 84 45
0.192172 -2.000000 -0.264502 0.000000 0.017115 -0.999854 135 84 45
-0.192172 -2.000000 -0.264502 0.000000 0.017115 -0.999854 135 84 45
-0.080712 6.962082 -0.111091 0.000000 1.000000 0.000000 255 255 255
-0.130595 6.962082 0.042433 0.000000 1.000000 0.000000 255 255 255
0.000000 6.962082 0.137316 0.000000 1.000000 0.000000 255 255 255
0.130595 6.962082 0.042433 0.000000 1.000000 -0.000000 255 255 255
0.080712 6.962082 -0.111091 0.000000 1.000000 -0.000000 255 255 255
0.080712 6.962082 -0.111091 0.950917 0.017115 -0.308972 135 84 45
0.310941 -2.000000 0.101031 0.950917 0.017115 -0.308972 135 84 45
0.192172 -2.000000 -0.264502 0.950917 0.017115 -0.308972 135 84 45
0.130595 6.962082 0.042433 0.587699 0.017115 0.808899 135 84 45
0.000000 -2.000000 0.326943 0.587699 0.017115 0.808899 135 84 45
0.310941 -2.000000 0.101031 0.587699 0.017115 0.808899 135 84 45
0.130595 6.962082 0.042433 0.950917 0.017115 -0.308972 135 84 45
0.080712 6.962082 -0.111091 0.000000 0.017115 -0.999854 135 84 45
-0.080712 6.962082 -0.111091 -0.950917 0.017115 -0.308972 135 84 45
-0.130595 6.962082 0.042433 -0.587699 0.017115 0.808899 135 84 45
0.000000 6.962082 0.137316 0.587699 0.017115 0.808899 135 84 45
0.919780 6.662866 -1.047658 0.578704 0.803396 -0.140202 75 255 68
0.565244 6.805983 -1.690959 0.578704 0.803396 -0.140202 75 255 68
0.260947 7.182961 -0.786804 0.578704 0.803396 -0.140202 75 255 68
0.565244 6.805983 -1.690959 -0.383679 0.799354 -0.462411 75 255 68
-0.106545 6.662866 -1.380953 -0.383679 0.799354 -0.462411 75 255 68
0.260947 7.182961 -0.786804 -0.383679 0.799354 -0.462411 75 255 68
0.260947 7.182961 -0.786804 0.321478 0.893719 0.312919 75 255 68
0.006400 6.996830 0.006308 0.321478 0.893719 0.312919 53 255 60
0.577556 6.912251 -0.338909 0.321478 0.893719 0.312919 53 255 60
0.260947 7.182961 -0.786804 -0.526824 0.773862 -0.351558 75 255 68
-0.106545 6.662866 -1.380953 -0.526824 0.773862 -0.351558 75 255 68
-0.255138 6.912251 -0.609324 -0.526824 0.773862 -0.351558 62 255 63
0.260947 7.182961 -0.786804 -0.445436 0.892835 0.066573 75 255 68
-0.255138 6.912251 -0.609324 -0.445436 0.892835 0.066573 62 255 63
0.006400 6.996830 0.006308 -0.445436 0.892835 0.066573 53 255 60
0.260947 7.182961 -0.786804 0.626233 0.779125 0.028233 75 255 68
0.577556 6.912251 -0.338909 0.626233 0.779125 0.028233 53 255 60
0.919780 6.662866 -1.047658 0.626233 0.779125 0.028233 75 255 68
0.565244 6.805983 -1.690959 -0.422682 0.675614 -0.604057 75 255 68
0.259647 6.330353 -2.009094 -0.422682 0.675614 -0.604057 75 255 68
-0.106545 6.662866 -1.380953 -0.422682 0.675614 -0.604057 75 255 68
0.919780 6.662866 -1.047658 0.697626 0.677238 -0.233809 75 255 68
1.001944 6.330353 -1.765643 0.697626 0.677238 -0.233809 75 255 68
0.565244 6.805983 -1.690959 0.697626 0.677238 -0.233809 75 255 68
0.565244 6.805983 -1.690959 -0.090129 0.593068 -0.800092 75 255 68
0.788471 5.937579 -2.359809 -0.090129 0.593068 -0.800092 75 255 68
0.259647 6.330353 -2.009094 -0.090129 0.593068 -0.800092 75 255 68
0.565244 6.805983 -1.690959 0.546775 0.594585 -0.589496 75 255 68
1.001944 6.330353 -1.765643 0.546775 0.594585 -0.589496 75 255 68
0.788471 5.937579 -2.359809 0.546775 0.594585 -0.589496 75 255 68
0.788471 5.937579 -2.359809 -0.192976 -0.785208 0.588395 75 255 68
1.001944 6.330353 -1.765643 -0.192976 -0.785208 0.588395 75 255 68
0.259647 6.330353 -2.009094 -0.192976 -0.785208 0.588395 75 255 68
0.259647 6.330353 -2.009094 -0.132023 -0.905830 0.402544 75 255 68
1.001944 6.330353 -1.765643 -0.132023 -0.905830 0.402544 75 255 68
-0.106545 6.662866 -1.380953 -0.132023 -0.905830 0.402544 75 255 68
1.001944 6.330353 -1.765643 -0.131262 -0.905204 0.404197 75 255 68
0.919780 6.662866 -1.047658 -0.131262 -0.905204 0.404197 75 255 68
-0.106545 6.662866 -1.380953 -0.131262 -0.905204 0.404197 75 255 68
-0.106545 6.662866 -1.380953 -0.094084 -0.952477 0.289716 75 255 68
0.919780 6.662866 -1.047658 -0.094084 -0.952477 0.289716 75 255 68
-0.255138 6.912251 -0.609324 -0.094084 -0.952477 0.289716 62 255 63
0.577556 6.912251 -0.338909 -0.094084 -0.952477 0.289716 53 255 60
0.006400 6.996830 0.006308 -0.051044 -0.986250 0.157180 53 255 60
-0.255138 6.912251 -0.609324 -0.051044 -0.986250 0.157180 62 255 63
0.577556 6.912251 -0.338909 -0.051044 -0.986250 0.157180 53 255 60
-0.638726 6.662866 -1.241763 0.088981 0.803396 -0.588759 75 255 68
-1.368317 6.805983 -1.156737 0.088981 0.803396 -0.588759 75 255 68
-0.646303 7.182961 -0.533210 0.088981 0.803396 -0.588759 75 255 68
-1.368317 6.805983 -1.156737 -0.573142 0.799354 0.180391 75 255 68
-1.335287 6.662866 -0.417607 -0.573142 0.799354 0.180391 75 255 68
-0.646303 7.182961 -0.533210 -0.573142 0.799354 0.180391 75 255 68
-0.646303 7.182961 -0.533210 0.411230 0.893719 -0.179321 75 255 68
-0.008282 6.996830 0.002281 0.411230 0.893719 -0.179321 53 255 60
-0.111954 6.912251 -0.656996 0.411230 0.893719 -0.179321 53 255 60
-0.646303 7.182961 -0.533210 -0.524632 0.773862 0.354821 75 255 68
-1.335287 6.662866 -0.417607 -0.524632 0.773862 0.354821 75 255 68
-0.677098 6.912251 0.011671 -0.524632 0.773862 0.354821 62 255 63
-0.646303 7.182961 -0.533210 -0.106764 0.892835 0.437546 75 255 68
-0.677098 6.912251 0.011671 -0.106764 0.892835 0.437546 62 255 63
-0.008282 6.996830 0.002281 -0.106764 0.892835 0.437546 53 255 60
-0.646303 7.182961 -0.533210 0.262884 0.779125 -0.569084 75 255 68
-0.111954 6.912251 -0.656996 0.262884 0.779125 -0.569084 53 255 60
-0.638726 6.662866 -1.241763 0.262884 0.779125 -0.569084 75 255 68
-1.368317 6.805983 -1.156737 -0.719022 0.675614 0.162951 75 255 68
-1.778373 6.330353 -0.994090 -0.719022 0.675614 0.162951 75 255 68
-1.335287 6.662866 -0.417607 -0.719022 0.675614 0.162951 75 255 68
-0.638726 6.662866 -1.241763 0.047279 0.677238 -0.734243 75 255 68
-1.272365 6.330353 -1.589262 0.047279 0.677238 -0.734243 75 255 68
-1.368317 6.805983 -1.156737 0.047279 0.677238 -0.734243 75 255 68
-1.368317 6.805983 -1.156737 -0.774787 0.593068 -0.219033 75 255 68
-1.903139 5.937579 -1.616255 -0.774787 0.593068 -0.219033 75 255 68
-1.778373 6.330353 -0.994090 -0.774787 0.593068 -0.219033 75 255 68
-1.368317 6.805983 -1.156737 -0.339041 0.594585 -0.729055 75 255 68
-1.272365 6.330353 -1.589262 -0.339041 0.594585 -0.729055 75 255 68
-1.903139 5.937579 -1.616255 -0.339041 0.594585 -0.729055 75 255 68
-1.903139 5.937579 -1.616255 0.471774 -0.785208 0.401096 75 255 68
-1.272365 6.330353 -1.589262 0.471774 -0.785208 0.401096 75 255 68
-1.778373 6.330353 -0.994090 0.471774 -0.785208 0.401096 75 255 68
-1.778373 6.330353 -0.994090 0.322759 -0.905830 0.274406 75 255 68
-1.272365 6.330353 -1.589262 0.322759 -0.905830 0.274406 75 255 68
-1.335287 6.662866 -0.417607 0.322759 -0.905830 0.274406 75 255 68
-1.272365 6.330353 -1.589262 0.324577 -0.905204 0.274326 75 255 68
-0.638726 6.662866 -1.241763 0.324577 -0.905204 0.274326 75 255 68
-1.335287 6.662866 -0.417607 0.324577 -0.905204 0.274326 75 255 68
-1.335287 6.662866 -0.417607 0.232647 -0.952477 0.196629 75 255 68
-0.638726 6.662866 -1.241763 0.232647 -0.952477 0.196629 75 255 68
-0.677098 6.912251 0.011671 0.232647 -0.952477 0.196629 62 255 63
-0.111954 6.912251 -0.656996 0.232647 -0.952477 0.196629 53 255 60
-0.008282 6.996830 0.002281 0.126218 -0.986250 0.106677 53 255 60
-0.677098 6.912251 0.011671 0.126218 -0.986250 0.106677 62 255 63
-0.111954 6.912251 -0.656996 0.126218 -0.986250 0.106677 53 255 60
-1.353394 6.662866 0.194844 -0.532524 0.803396 -0.266409 75 255 68
-1.497778 6.805983 0.915043 -0.532524 0.803396 -0.266409 75 255 68
-0.681796 7.182961 0.420811 -0.532524 0.803396 -0.266409 75 255 68
-1.497778 6.805983 0.915043 -0.005376 0.799354 0.600836 75 255 68
-0.784560 6.662866 1.111827 -0.005376 0.799354 0.600836 75 255 68
-0.681796 7.182961 0.420811 -0.005376 0.799354 0.600836 75 255 68
-0.681796 7.182961 0.420811 -0.043596 0.893719 -0.446504 75 255 68
0.024518 6.996830 -0.020710 -0.043596 0.893719 -0.446504 53 255 60
-0.634558 6.912251 -0.125649 -0.043596 0.893719 -0.446504 53 255 60
-0.681796 7.182961 0.420811 0.175510 0.773862 0.608550 75 255 68
-0.784560 6.662866 1.111827 0.175510 0.773862 0.608550 75 255 68
-0.173043 6.912251 0.618331 0.175510 0.773862 0.608550 62 255 63
-0.681796 7.182961 0.420811 0.383208 0.892835 0.236638 75 255 68
-0.173043 6.912251 0.618331 0.383208 0.892835 0.236638 62 255 63
0.024518 6.996830 -0.020710 0.383208 0.892835 0.236638 53 255 60
-0.681796 7.182961 0.420811 -0.460119 0.779125 -0.425742 75 255 68
-0.634558 6.912251 -0.125649 -0.460119 0.779125 -0.425742 53 255 60
-1.353394 6.662866 0.194844 -0.460119 0.779125 -0.425742 75 255 68
-1.497778 6.805983 0.915043 -0.067004 0.675614 0.734204 75 255 68
-1.469679 6.330353 1.355282 -0.067004 0.675614 0.734204 75 255 68
-0.784560 6.662866 1.111827 -0.067004 0.675614 0.734204 75 255 68
-1.353394 6.662866 0.194844 -0.683775 0.677238 -0.271662 75 255 68
-1.879547 6.330353 0.690239 -0.683775 0.677238 -0.271662 75 255 68
-1.497778 6.805983 0.915043 -0.683775 0.677238 -0.271662 75 255 68
-1.497778 6.805983 0.915043 -0.447543 0.593068 0.669310 75 255 68
-2.099968 5.937579 1.281862 -0.447543 0.593068 0.669310 75 255 68
-1.469679 6.330353 1.355282 -0.447543 0.593068 0.669310 75 255 68
-1.497778 6.805983 0.915043 -0.798113 0.594584 0.097386 75 255 68
-1.879547 6.330353 0.690239 -0.798113 0.594584 0.097386 75 255 68
-2.099968 5.937579 1.281862 -0.798113 0.594584 0.097386 75 255 68
-2.099968 5.937579 1.281862 0.527158 -0.785208 -0.324890 75 255 68
-1.879547 6.330353 0.690239 0.527158 -0.785208 -0.324890 75 255 68
-1.469679 6.330353 1.355282 0.527158 -0.785208 -0.324890 75 255 68
-1.469679 6.330353 1.355282 0.360650 -0.905830 -0.222270 75 255 68
-1.879547 6.330353 0.690239 0.360650 -0.905830 -0.222270 75 255 68
-0.784560 6.662866 1.111827 0.360650 -0.905830 -0.222270 75 255 68
-1.879547 6.330353 0.690239 0.361135 -0.905204 -0.224024 75 255 68
-1.353394 6.662866 0.194844 0.361135 -0.905204 -0.224024 75 255 68
-0.784560 6.662866 1.111827 0.361135 -0.905204 -0.224024 75 255 68
-0.784560 6.662866 1.111827 0.258851 -0.952477 -0.160573 75 255 68
-1.353394 6.662866 0.194844 0.258851 -0.952477 -0.160573 75 255 68
-0.173043 6.912251 0.618331 0.258851 -0.952477 -0.160573 62 255 63
-0.634558 6.912251 -0.125649 0.258851 -0.952477 -0.160573 53 255 60
0.024518 6.996830 -0.020710 0.140434 -0.986250 -0.087116 53 255 60
-0.173043 6.912251 0.618331 0.140434 -0.986250 -0.087116 62 255 63
-0.634558 6.912251 -0.125649 0.140434 -0.986250 -0.087116 53 255 60
1.333859 6.662866 0.348438 0.383249 0.803396 0.455714 75 255 68
1.751960 6.805983 -0.255486 0.383249 0.803396 0.455714 75 255 68
0.806899 7.182961 -0.125290 0.383249 0.803396 0.455714 75 255 68
1.751960 6.805983 -0.255486 0.243160 0.799354 -0.549460 75 255 68
1.175220 6.662866 -0.718925 0.243160 0.799354 -0.549460 75 255 68
0.806899 7.182961 -0.125290 0.243160 0.799354 -0.549460 75 255 68
0.806899 7.182961 -0.125290 -0.137011 0.893719 0.427194 75 255 68
-0.016584 6.996830 -0.000001 -0.137011 0.893719 0.427194 53 255 60
0.546867 6.912251 0.357654 -0.137011 0.893719 0.427194 53 255 60
0.806899 7.182961 -0.125290 0.080159 0.773862 -0.628261 75 255 68
1.175220 6.662866 -0.718925 0.080159 0.773862 -0.628261 75 255 68
0.418158 6.912251 -0.508336 0.080159 0.773862 -0.628261 62 255 63
0.806899 7.182961 -0.125290 -0.257976 0.892835 -0.369180 75 255 68
0.418158 6.912251 -0.508336 -0.257976 0.892835 -0.369180 62 255 63
-0.016584 6.996830 -0.000001 -0.257976 0.892835 -0.369180 53 255 60
0.806899 7.182961 -0.125290 0.253605 0.779125 0.573279 75 255 68
0.546867 6.912251 0.357654 0.253605 0.779125 0.573279 53 255 60
1.333859 6.662866 0.348438 0.253605 0.779125 0.573279 75 255 68
1.751960 6.805983 -0.255486 0.352616 0.675614 -0.647462 75 255 68
1.900714 6.330353 -0.670784 0.352616 0.675614 -0.647462 75 255 68
1.175220 6.662866 -0.718925 0.352616 0.675614 -0.647462 75 255 68
1.333859 6.662866 0.348438 0.520022 0.677238 0.520506 75 255 68
2.013307 6.330353 0.102260 0.520022 0.677238 0.520506 75 255 68
1.751960 6.805983 -0.255486 0.520022 0.677238 0.520506 75 255 68
1.751960 6.805983 -0.255486 0.676236 0.593068 -0.437007 75 255 68
2.450234 5.937579 -0.353480 0.676236 0.593068 -0.437007 75 255 68
1.900714 6.330353 -0.670784 0.676236 0.593068 -0.437007 75 255 68
1.751960 6.805983 -0.255486 0.771312 0.594584 0.227039 75 255 68
2.013307 6.330353 0.102260 0.771312 0.594584 0.227039 75 255 68
2.450234 5.937579 -0.353480 0.771312 0.594584 0.227039 75 255 68
2.450234 5.937579 -0.353480 -0.612767 -0.785208 0.089249 75 255 68
2.013307 6.330353 0.102260 -0.612767 -0.785208 0.089249 75 255 68
1.900714 6.330353 -0.670784 -0.612767 -0.785208 0.089249 75 255 68
1.900714 6.330353 -0.670784 -0.419218 -0.905830 0.061059 75 255 68
2.013307 6.330353 0.102260 -0.419218 -0.905830 0.061059 75 255 68
1.175220 6.662866 -0.718925 -0.419218 -0.905830 0.061059 75 255 68
2.013307 6.330353 0.102260 -0.420359 -0.905204 0.062477 75 255 68
1.333859 6.662866 0.348438 -0.420359 -0.905204 0.062477 75 255 68
1.175220 6.662866 -0.718925 -0.420359 -0.905204 0.062477 75 255 68
1.175220 6.662866 -0.718925 -0.301300 -0.952477 0.044781 75 255 68
1.333859 6.662866 0.348438 -0.301300 -0.952477 0.044781 75 255 68
0.418158 6.912251 -0.508336 -0.301300 -0.952477 0.044781 62 255 63
1.333859 6.662866 0.348438 -0.301301 -0.952477 0.044781 75 255 68
0.546867 6.912251 0.357654 -0.301301 -0.952477 0.044781 53 255 60
0.418158 6.912251 -0.508336 -0.301301 -0.952477 0.044781 62 255 63
-0.016584 6.996830 -0.000001 -0.163465 -0.986250 0.024295 53 255 60
0.418158 6.912251 -0.508336 -0.163465 -0.986250 0.024295 62 255 63
0.546867 6.912251 0.357654 -0.163465 -0.986250 0.024295 53 255 60
0.022893 6.662866 1.382401 -0.330643 0.803396 0.495208 75 255 68
0.719509 6.805983 1.615336 -0.330643 0.803396 0.495208 75 255 68
0.330726 7.182961 0.744165 -0.330643 0.803396 0.495208 75 255 68
0.719509 6.805983 1.615336 0.595491 0.799354 0.080147 75 255 68
1.003568 6.662866 0.932171 0.595491 0.799354 0.080147 75 255 68
0.330726 7.182961 0.744165 0.595491 0.799354 0.080147 75 255 68
0.330726 7.182961 0.744165 -0.448458 0.893719 -0.012340 75 255 68
-0.019413 6.996830 -0.011628 -0.448458 0.893719 -0.012340 53 255 60
-0.205601 6.912251 0.629253 -0.448458 0.893719 -0.012340 53 255 60
0.330726 7.182961 0.744165 0.625668 0.773862 -0.098370 75 255 68
1.003568 6.662866 0.932171 0.625668 0.773862 -0.098370 75 255 68
0.590055 6.912251 0.263966 0.625668 0.773862 -0.098370 62 255 63
0.330726 7.182961 0.744165 0.282511 0.892835 -0.350761 75 255 68
0.590055 6.912251 0.263966 0.282511 0.892835 -0.350761 62 255 63
-0.019413 6.996830 -0.011628 0.282511 0.892835 -0.350761 53 255 60
0.330726 7.182961 0.744165 -0.479720 0.779125 0.403527 75 255 68
-0.205601 6.912251 0.629253 -0.479720 0.779125 0.403527 53 255 60
0.022893 6.662866 1.382401 -0.479720 0.779125 0.403527 75 255 68
0.719509 6.805983 1.615336 0.720147 0.675615 0.157901 75 255 68
1.159821 6.330353 1.642272 0.720147 0.675615 0.157901 75 255 68
1.003568 6.662866 0.932171 0.720147 0.675615 0.157901 75 255 68
0.022893 6.662866 1.382401 -0.354688 0.677238 0.644628 75 255 68
0.448919 6.330353 1.966143 -0.354688 0.677238 0.644628 75 255 68
0.719509 6.805983 1.615336 -0.354688 0.677238 0.644628 75 255 68
0.719509 6.805983 1.615336 0.608376 0.593068 0.527399 75 255 68
1.008493 5.937579 2.258515 0.608376 0.593068 0.527399 75 255 68
1.159821 6.330353 1.642272 0.608376 0.593068 0.527399 75 255 68
0.719509 6.805983 1.615336 -0.002749 0.594585 0.804028 75 255 68
0.448919 6.330353 1.966143 -0.002749 0.594585 0.804028 75 255 68
1.008493 5.937579 2.258515 -0.002749 0.594585 0.804028 75 255 68
1.008493 5.937579 2.258515 -0.256722 -0.785208 -0.563509 75 255 68
0.448919 6.330353 1.966143 -0.256722 -0.785208 -0.563509 75 255 68
1.159821 6.330353 1.642272 -0.256722 -0.785208 -0.563509 75 255 68
1.159821 6.330353 1.642272 -0.175634 -0.905830 -0.385519 75 255 68
0.448919 6.330353 1.966143 -0.175634 -0.905830 -0.385519 75 255 68
1.003568 6.662866 0.932171 -0.175634 -0.905830 -0.385519 75 255 68
0.448919 6.330353 1.966143 -0.177314 -0.905204 -0.386219 75 255 68
0.022893 6.662866 1.382401 -0.177314 -0.905204 -0.386219 75 255 68
1.003568 6.662866 0.932171 -0.177314 -0.905204 -0.386219 75 255 68
1.003568 6.662866 0.932171 -0.127093 -0.952477 -0.276830 75 255 68
0.022893 6.662866 1.382401 -0.127093 -0.952477 -0.276830 75 255 68
0.590055 6.912251 0.263966 -0.127093 -0.952477 -0.276830 62 255 63
-0.205601 6.912251 0.629253 -0.127093 -0.952477 -0.276830 53 255 60
-0.019413 6.996830 -0.011628 -0.068952 -0.986250 -0.150189 53 255 60
0.590055 6.912251 0.263966 -0.068952 -0.986250 -0.150189 62 255 63
-0.205601 6.912251 0.629253 -0.068952 -0.986250 -0.150189 53 255 60
3 0 1 2
3 3 4 5
3 6 7 8
3 9 10 11
3 11 12 13
3 11 13 9
3 14 15 16
3 17 18 19
3 14 20 15
3 6 21 7
3 3 22 4
3 0 23 1
3 17 24 18
3 25 26 27
3 28 29 30
3 31 32 33
3 34 35 36
3 37 38 39
3 40 41 42
3 43 44 45
3 46 47 48
3 49 50 51
3 52 53 54
3 55 56 57
3 58 59 60
3 61 62 63
3 64 65 66
3 65 67 66
3 68 69 70
3 71 72 73
3 74 75 76
3 77 78 79
3 80 81 82
3 83 84 85
3 86 87 88
3 89 90 91
3 92 93 94
3 95 96 97
3 98 99 100
3 101 102 103
3 104 105 106
3 107 108 109
3 110 111 112
3 111 113 112
3 114 115 116
3 117 118 119
3 120 121 122
3 123 124 125
3 126 127 128
3 129 130 131
3 132 133 134
3 135 136 137
3 138 139 140
3 141 142 143
3 144 145 146
3 147 148 149
3 150 151 152
3 153 154 155
3 156 157 158
3 157 159 158
3 160 161 162
3 163 164 165
3 166 167 168
3 169 170 171
3 172 173 174
3 175 176 177
3 178 179 180
3 181 182 183
3 184 185 186
3 187 188 189
3 190 191 192
3 193 194 195
3 196 197 198
3 199 200 201
3 202 203 204
3 205 206 207
3 208 209 210
3 211 212 213
3 214 215 216
3 217 218 219
3 220 221 222
3 223 224 225
3 226 227 228
3 229 230 231
3 232 233 234
3 235 236 237
3 238 239 240
3 241 242 243
3 244 245 246
3 247 248 249
3 250 251 252
3 251 253 252
3 254 255 256
